<svg width="24" height="23" viewBox="0 0 24 23" fill="none" xmlns="http://www.w3.org/2000/svg">
  <path d="M21.6 2.57812H2.4C1.08 2.57812 0 3.5904 0 4.82763V18.3247C0 19.5619 1.08 20.5742 2.4 20.5742H21.6C22.92 20.5742 24 19.5619 24 18.3247V4.82763C24 3.5904 22.92 2.57812 21.6 2.57812ZM21.12 7.35833L13.272 11.9586C12.492 12.4197 11.508 12.4197 10.728 11.9586L2.88 7.35833C2.75967 7.29502 2.6543 7.20948 2.57027 7.1069C2.48623 7.00431 2.42527 6.88681 2.39109 6.7615C2.35691 6.6362 2.3502 6.50569 2.37139 6.37789C2.39257 6.25009 2.4412 6.12764 2.51434 6.01796C2.58747 5.90828 2.68359 5.81366 2.79687 5.7398C2.91015 5.66595 3.03825 5.61441 3.17339 5.5883C3.30854 5.5622 3.44794 5.56206 3.58315 5.58791C3.71835 5.61376 3.84656 5.66505 3.96 5.73868L12 10.4514L20.04 5.73868C20.1534 5.66505 20.2816 5.61376 20.4169 5.58791C20.5521 5.56206 20.6915 5.5622 20.8266 5.5883C20.9618 5.61441 21.0898 5.66595 21.2031 5.7398C21.3164 5.81366 21.4125 5.90828 21.4857 6.01796C21.5588 6.12764 21.6074 6.25009 21.6286 6.37789C21.6498 6.50569 21.6431 6.6362 21.6089 6.7615C21.5747 6.88681 21.5138 7.00431 21.4297 7.1069C21.3457 7.20948 21.2403 7.29502 21.12 7.35833Z" fill="white" />
</svg>