<svg width="20" height="18" viewBox="0 0 20 18" fill="none" xmlns="http://www.w3.org/2000/svg">
  <path d="M14.4643 0.40625C12.6205 0.40625 11.0063 1.20136 10 2.54534C8.99375 1.20136 7.37946 0.40625 5.53571 0.40625C4.06806 0.407909 2.66099 0.993324 1.6232 2.03406C0.585411 3.0748 0.00165423 4.48587 0 5.95769C0 12.2254 9.26696 17.2987 9.66161 17.5083C9.76562 17.5644 9.88189 17.5938 10 17.5938C10.1181 17.5938 10.2344 17.5644 10.3384 17.5083C10.733 17.2987 20 12.2254 20 5.95769C19.9983 4.48587 19.4146 3.0748 18.3768 2.03406C17.339 0.993324 15.9319 0.407909 14.4643 0.40625ZM10 16.0577C8.36964 15.105 1.42857 10.7651 1.42857 5.95769C1.42999 4.86575 1.86316 3.81894 2.63309 3.04682C3.40302 2.2747 4.44687 1.8403 5.53571 1.83888C7.27232 1.83888 8.73036 2.76651 9.33929 4.25644C9.3931 4.38782 9.48465 4.50019 9.60229 4.57927C9.71994 4.65836 9.85837 4.70058 10 4.70058C10.1416 4.70058 10.2801 4.65836 10.3977 4.57927C10.5154 4.50019 10.6069 4.38782 10.6607 4.25644C11.2696 2.76382 12.7277 1.83888 14.4643 1.83888C15.5531 1.8403 16.597 2.2747 17.3669 3.04682C18.1368 3.81894 18.57 4.86575 18.5714 5.95769C18.5714 10.7579 11.6286 15.1041 10 16.0577Z" fill="#111111" />
</svg>