<svg width="127" height="35" viewBox="0 0 127 35" fill="none" xmlns="http://www.w3.org/2000/svg">
  <path d="M12.3205 16.9891C14.4299 16.9891 15.948 16.4902 16.8748 15.4922C17.8016 14.4942 18.2651 13.1002 18.2651 11.3103C18.2651 10.5182 18.1452 9.79747 17.9055 9.148C17.6658 8.49853 17.2983 7.9441 16.8029 7.48472C16.3235 7.0095 15.7083 6.64517 14.9572 6.39172C14.2221 6.13826 13.3432 6.01154 12.3205 6.01154H8.10183V16.9891H12.3205ZM12.3205 0C14.7814 0 16.8908 0.293052 18.6486 0.879157C20.4224 1.44942 21.8765 2.24146 23.0111 3.25526C24.1617 4.26906 25.0086 5.46504 25.5519 6.84318C26.0952 8.22132 26.3669 9.71034 26.3669 11.3103C26.3669 13.0369 26.0872 14.621 25.5279 16.0625C24.9686 17.504 24.1137 18.7395 22.9632 19.7692C21.8126 20.7988 20.3504 21.6067 18.5767 22.1928C16.8189 22.7631 14.7335 23.0482 12.3205 23.0482H8.10183V34.6198H0V0H12.3205Z" fill="#111111" />
  <path d="M49.845 28.2756C50.9317 28.2756 51.8984 28.1014 52.7454 27.7529C53.6083 27.3885 54.3354 26.8737 54.9266 26.2084C55.5179 25.5431 55.9653 24.7352 56.269 23.7848C56.5886 22.8185 56.7484 21.7255 56.7484 20.5058V0H64.8502V20.5058C64.8502 22.6284 64.4986 24.5768 63.7955 26.351C63.1084 28.1251 62.1176 29.6538 60.8232 30.9369C59.5289 32.22 57.9548 33.2179 56.1012 33.9308C54.2475 34.6436 52.1621 35 49.845 35C47.512 35 45.4186 34.6436 43.5649 33.9308C41.7112 33.2179 40.1372 32.22 38.8428 30.9369C37.5485 29.6538 36.5577 28.1251 35.8706 26.351C35.1834 24.5768 34.8399 22.6284 34.8399 20.5058V0H42.9417V20.482C42.9417 21.7017 43.0935 22.7948 43.3971 23.761C43.7167 24.7115 44.1721 25.5273 44.7634 26.2084C45.3547 26.8737 46.0738 27.3885 46.9207 27.7529C47.7836 28.1014 48.7584 28.2756 49.845 28.2756Z" fill="#111111" />
  <path d="M97.0189 28.2043V34.6198H75.9733V0H84.0752V28.2043H97.0189Z" fill="#111111" />
  <path fill-rule="evenodd" clip-rule="evenodd" d="M105.954 0V34.6198L114.056 28.2043V0H105.954Z" fill="#111111" />
  <path d="M127 34.6198V28.2043H114.056L105.954 34.6198H127Z" fill="#D61818" />
</svg>